<svg xmlns="http://www.w3.org/2000/svg" width="1792" height="1792" style=""><rect id="backgroundrect" width="100%" height="100%" x="0" y="0" fill="none" stroke="none"/><g class="currentLayer" style=""><title>Layer 1</title><path d="M1600 960q0 54-37 91l-651 651q-39 37-91 37-51 0-90-37l-75-75q-38-38-38-91t38-91l293-293h-704q-52 0-84.5-37.5t-32.5-90.5v-128q0-53 32.5-90.5t84.5-37.5h704l-293-294q-38-36-38-90t38-90l75-75q38-38 90-38 53 0 91 38l651 651q37 35 37 90z" fill="#0067ee" id="svg_1" class="selected" fill-opacity="1" stroke="#0067ee" stroke-opacity="1"/></g></svg>