<svg class="home-hair home-hair--2" width="368" height="519" xmlns="http://www.w3.org/2000/svg"><g stroke="#FFF" fill="none" fill-rule="evenodd"><path d="M341.7 218.4l-.1.6.1-.6.2-.5.1-.6.2-.5.1-.6.1-.5.1-.6.2-.6.1-.5.1-.6.1-.5.1-.6.1-.6.1-.5.1-.6.1-.5.1-.6.1-.6.1-.5.1-.6v-.6l.1-.5.1-.6.1-.6v-.5l.1-.6.1-.6v-.5l.1-.6v-.6l.1-.6v-.5l.1-.6v-.6l.1-.5v-1.2l.1-.6v-1.7l.1-.6v-6.4l-.1-.5v-1.8l-.1-.6v-1.1l-.1-.6v-.6l-.1-.6v-.6l-.1-.6v-.6l-.1-.6v-.5l-.1-.6-.1-.6-.2-2-.2-1.9-.3-1.9-.3-1.9-.2-1.9-.3-2-.4-1.8-.3-1.9-.3-1.9-.4-1.9-.4-1.9-.3-1.9-.4-1.8-.5-1.9-.4-1.8-.4-1.9-.5-1.8-.4-1.8-.5-1.9-.5-1.8-.5-1.8-.6-1.8-.5-1.8-.6-1.8-.5-1.8-.6-1.8-.6-1.8-.6-1.7-.6-1.8-.7-1.8-.6-1.7-.7-1.8-.7-1.7-.7-1.7-.7-1.8-.7-1.7-.7-1.7-.8-1.7-.7-1.7-.8-1.7-.8-1.7-.8-1.7-.8-1.7-.9-1.6-.8-1.7-.9-1.7-.8-1.6-.9-1.7-.9-1.6-.9-1.6-1-1.7-.9-1.6-.9-1.6-1-1.6-1-1.6-1-1.6-1-1.6-1-1.6-1-1.6-1.1-1.6-1-1.5-1.1-1.6-1.1-1.6-1.1-1.5-1.1-1.6-1.1-1.5-1.2-1.5-1.1-1.5-1.2-1.6-1.2-1.5-.7-.9-.8-1-.8-.9-.8-1-.8-.9-.8-.9-.8-.9-.8-.9-.8-.9-.8-.8-.8-.9-.9-.8-.8-.9-.9-.8-.8-.8-.9-.8-.8-.8-.9-.8-.9-.8-.9-.7-.9-.8-.9-.7-.9-.8-.9-.7-.9-.7-.9-.7-1-.7-.9-.7-.9-.7-1-.6-.9-.7-1-.6-1-.7-.9-.6-1-.6-1-.6-1-.6-1-.6-1-.6-1-.5-1-.6-1-.5-1-.6-1-.5-1.1-.5-1-.5-1-.5-1.1-.5-1-.5-1.1-.5-1-.4-1.1-.5-1.1-.4-1-.5-1.1-.4-1.1-.4-1.1-.4-1.1-.4-1.1-.4-1.1-.4-1.1-.3-1.1-.4-1.1-.3-1.1-.4-1.2-.3-1.1-.3-1.1-.3-1.2-.3-1.1-.3-1.2-.3-.7-.2-.8-.2-.8-.2-.7-.1-.8-.2-.8-.2-.7-.2-.8-.1-.8-.2-.7-.2-.8-.1-.8-.2-.8-.2-.7-.1-.8-.2-.8-.2-.8-.1-.7-.2-.8-.1-.8-.2-.7-.1-.8-.2-.8-.1-.8-.2-.7-.1-.8-.2-.8-.1-.8-.2-.7-.1-.8-.1-.8-.2-.8-.1-.8-.2-.7-.1-.8-.1-.8-.2-.8-.1-.7-.1-.8-.2-.8-.1-.8-.1-.7-.2-.8-.1-.8-.1-.8-.2-.8-.1-.7-.1-.8-.2-.8-.1-.8-.1-.7-.1-.8-.2-.8-.1-.8-.1-.8-.1-.7-.2-.8-.1-.8-.1-.8-.1-.7-.2-.8-.1-.8-.1-.8-.1-.7-.2-.8-.1-.8-.1-.8-.1-.8-.2-.7-.1-.8-.1-.6-.1-.5-.1-.6-.1-.5-.1h-.6l-.6-.1-.5-.1-.6-.1-.6-.1h-.5l-.6-.1-.5-.1-.6-.1h-.5l-.6-.1-.6-.1-.5-.1h-.6l-.5-.1-.6-.1h-.5l-.6-.1-.5-.1h-.5l-.6-.1-.5-.1h-.6l-.5-.1h-.5l-.6-.1-.5-.1h-.5l-.5-.1h-.6l-.5-.1-.5-.1h-.5l-.5-.1h-.5l-.5-.1h-.5l-.5-.1h-.5l-.5-.1h-.5l-.5-.1h-.5l-.4-.1h-.5l-.5-.1h-.9l-.5-.1h-.4l-.5-.1h-.4l-.4-.1h-.5l-.4-.1h-.9l-.4-.1h-.4l-.4-.1h-.8l-.4-.1h-.4l-.4-.1h-6.8l-.5.1h-3.1l-.6.1h-2l-.5.1h-1l-.5.1h-1.5l-.5.1h-.5l-.5.1h-1l-.5.1h-.5l-.5.1h-.5l-.5.1h-.5l-.5.1h-.4l-.5.1h-.5l-.5.1h-.5l-.4.1-.5.1h-.5l-.5.1-.4.1h-.5l-.5.1-.5.1h-.4l-.5.1-.5.1-.4.1-.5.1h-.5l-.4.1-.5.1-.5.1-.4.1-.5.1-.4.1-.5.1"/><path d="M.6 498.9l-.6-.3.6.3.6.2.6.3.6.3.6.2.6.3.6.3.7.2.6.3.6.2.6.3.6.2.6.3.6.2.6.3.6.2.7.3.6.2.6.3.6.2.6.3.7.2.6.2.6.3.6.2.6.2.7.3.6.2.6.2.6.3.7.2.6.2.6.2.6.2.7.3.6.2.6.2.7.2.6.2.6.2.6.2.7.2.6.2.7.2.6.2.6.2.7.2.6.2.6.2.7.2.6.2.7.2.6.1.6.2.7.2.6.2.7.1.6.2.7.2.6.2.7.1.6.2.7.1.6.2.7.2.6.1.7.2.6.1.7.2.6.1 1.5.3 1.4.4 1.5.3 1.4.3 1.5.3 1.4.2 1.5.3 1.4.2 1.5.3 1.4.2 1.5.2 1.4.2 1.4.1 1.5.2 1.4.2 1.5.1 1.4.1 1.4.1 1.5.1 1.4.1 1.4.1 1.5.1h1.4l1.4.1h7.1l1.5-.1h1.4l1.4-.1 1.4-.1h1.5l1.4-.1 1.4-.1 1.4-.2 1.4-.1 1.4-.1 1.5-.2 1.4-.2 1.4-.1 1.4-.2 1.4-.2 1.4-.2 1.4-.3 1.4-.2 1.5-.3 1.4-.2 1.4-.3 1.4-.3 1.4-.3 1.4-.3 1.4-.3 1.4-.3 1.4-.4 1.4-.3 1.4-.4 1.4-.3 1.4-.4 1.4-.4 1.4-.4 1.4-.4 1.4-.5 1.4-.4 1.4-.4 1.4-.5 1.4-.5 1.4-.4 1.4-.5 1.5-.6 1.5-.5 1.4-.6 1.5-.6 1.5-.5 1.5-.6 1.5-.6 1.4-.6 1.5-.6 1.5-.7 1.4-.6 1.5-.6 1.4-.7 1.4-.6 1.5-.7 1.4-.7 1.4-.7 1.4-.6 1.5-.7 1.4-.7 1.4-.8 1.4-.7 1.4-.7 1.4-.7 1.4-.8 1.3-.7 1.4-.8 1.4-.8 1.4-.8 1.3-.7 1.4-.8 1.3-.8 1.4-.8 1.3-.9 1.4-.8 1.3-.8 1.4-.8 1.3-.9 1.3-.8 1.4-.9 1.3-.9 1.3-.8 1.3-.9 1.3-.9 1.3-.9 1.3-.9 1.3-.9 1.3-.9 1.3-.9 1.3-1 1.3-.9 1.2-.9 1.3-1 1.3-.9 1.2-1 1.3-1 1.3-.9 1.2-1 1.3-1 1.2-1 1.3-1 1.2-1 1.2-1 1.3-1 1.2-1 1.2-1.1 1.2-1 1.3-1 1.2-1.1 1.2-1 1.4-1.2 1.4-1.3 1.4-1.2 1.4-1.2 1.3-1.3 1.4-1.2 1.4-1.3 1.4-1.2 1.3-1.3 1.4-1.2 1.3-1.3 1.4-1.3 1.3-1.3 1.3-1.3 1.3-1.3 1.4-1.3 1.3-1.3 1.3-1.3 1.3-1.3 1.3-1.3 1.2-1.3 1.3-1.4 1.3-1.3 1.3-1.3 1.2-1.4 1.3-1.3 1.2-1.4 1.3-1.4 1.2-1.3 1.3-1.4 1.2-1.4 1.2-1.4 1.2-1.4 1.2-1.4 1.2-1.4 1.2-1.4 1.2-1.4 1.2-1.4 1.1-1.5 1.2-1.4 1.2-1.4 1.1-1.5 1.2-1.4 1.1-1.5 1.2-1.4 1.1-1.5 1.1-1.5 1.1-1.5 1.1-1.5 1.1-1.5 1.1-1.5 1.1-1.5 1.1-1.5 1.1-1.5 1-1.5 1.1-1.6 1-1.5 1.1-1.5 1-1.6 1.1-1.6 1-1.5 1-1.6 1-1.6 1-1.6 1-1.5 1-1.6 1-1.6 1-1.7.9-1.6 1-1.6.9-1.6 1-1.6.9-1.7.9-1.6.9-1.7.9-1.6.9-1.6.8-1.7.9-1.6.9-1.7.8-1.7.8-1.6.9-1.7.8-1.7.8-1.7.8-1.6.8-1.7.7-1.7.8-1.7.8-1.7.7-1.7.7-1.7.8-1.7.7-1.7.7-1.8.7-1.7.6-1.7.7-1.7.7-1.8.6-1.7.7-1.8.6-1.7.6-1.8.6-1.7.6-1.8.6-1.7.6-1.8.6-1.8.6-1.7.5-1.8.5-1.8.6-1.8.5-1.8.5-1.8.5-1.8.5-1.8.5-1.8.5-1.8.4-1.8.5-1.8.4-1.8.4-1.8.4-1.9.4-1.8.4-1.8.4-1.9.4-1.8.4-1.9.3-1.8.4-1.9.3-1.8.3-1.9.3-1.9.3-1.8.3-1.9.3-1.9.3-1.9.3-1.9.2-1.9.2-1.9.1-.8.1-.8.1-.8.1-.8.1-.8.1-.8.1-.8.1-.8.1-.8.1-.8v-.8l.1-.8.1-.7.1-.8.1-.8v-.8l.1-.8.1-.8.1-.8v-.7l.1-.8.1-.8v-.7l.1-.8.1-.8v-.7l.1-.8.1-.7v-.8l.1-.7v-.7l.1-.8.1-.7v-.7l.1-.7v-.7l.1-.7v-.7l.1-.7v-.7l.1-.7v-.7l.1-.6v-.7l.1-.6v-.7l.1-.6v-.6l.1-.7v-.6l.1-.6V189l.1-.5v-.6l.1-.6v-1.1l.1-.5v-.5l.1-.5v-1l.1-.5v-.5l.1-.5v-.9l.1-.4v-2.8l-.1-2.5v-2.4l-.1-2.4v-2.4l-.1-2.3-.1-2.4-.1-2.3-.1-2.4-.1-2.3-.1-2.3-.1-2.3-.2-2.3-.1-2.3-.2-2.3-.1-2.2-.2-2.3-.2-2.2-.2-2.2-.2-2.2-.2-2.3-.2-2.2-.2-2.1-.2-2.2-.3-2.2-.2-2.2-.3-2.1-.3-2.1-.3-2.2-.3-2.1-.3-2.1-.3-2.1-.3-2.1-.3-2.1-.4-2.1-.3-2.1-.4-2-.4-2.1-.4-2.1-.4-2-.4-2-.4-2.1-.5-2-.4-2-.5-2-.4-2-.5-2-.5-2-.5-2-.5-2-.6-2-.5-2-.6-1.9-.5-2-.6-1.9-.6-2-.6-1.9-.6-2-.7-1.9-.6-2-.7-1.9-.6-1.9-.7-1.9-.7-1.9-.7-2-.7-1.9-.8-1.9-.7-1.9-.8-1.9-.8-1.9-.1-.3-.1-.2-.1-.3-.1-.3-.1-.2-.1-.3-.1-.3-.1-.2-.1-.3-.1-.3-.1-.2-.1-.3-.2-.3-.1-.2-.1-.3-.1-.3-.1-.2-.1-.3-.1-.3-.1-.2-.2-.3-.1-.3-.1-.2-.1-.3-.1-.2-.1-.3-.1-.3-.2-.2-.1-.3-.1-.2-.1-.3-.1-.3-.1-.2-.2-.3-.1-.2-.1-.3-.1-.2-.1-.3-.2-.3-.1-.2-.1-.3-.1-.2-.1-.3-.2-.2-.1-.3-.1-.2-.1-.3-.2-.2-.1-.3-.1-.3-.1-.2-.2-.3-.1-.2-.1-.3-.1-.2-.2-.3-.1-.2-.1-.3-.1-.2-.2-.3-.1-.2-.1-.3-.2-.2-.1-.3-.1-.2-.1-.3-.2-.2-.1-.3-.1-.2"/></g></svg>